<svg width="102" height="19" viewBox="0 0 102 19" fill="none" xmlns="http://www.w3.org/2000/svg">
<path d="M4.03906 11.9883V18H0.523438V0.9375H7.17969C8.46094 0.9375 9.58594 1.17188 10.5547 1.64062C11.5312 2.10938 12.2812 2.77734 12.8047 3.64453C13.3281 4.50391 13.5898 5.48438 13.5898 6.58594C13.5898 8.25781 13.0156 9.57812 11.8672 10.5469C10.7266 11.5078 9.14453 11.9883 7.12109 11.9883H4.03906ZM4.03906 9.14062H7.17969C8.10938 9.14062 8.81641 8.92188 9.30078 8.48438C9.79297 8.04688 10.0391 7.42188 10.0391 6.60938C10.0391 5.77344 9.79297 5.09766 9.30078 4.58203C8.80859 4.06641 8.12891 3.80078 7.26172 3.78516H4.03906V9.14062ZM24.8633 13.5234C24.8633 12.8594 24.6289 12.3516 24.1602 12C23.6914 11.6406 22.8477 11.2656 21.6289 10.875C20.4102 10.4766 19.4453 10.0859 18.7344 9.70312C16.7969 8.65625 15.8281 7.24609 15.8281 5.47266C15.8281 4.55078 16.0859 3.73047 16.6016 3.01172C17.125 2.28516 17.8711 1.71875 18.8398 1.3125C19.8164 0.90625 20.9102 0.703125 22.1211 0.703125C23.3398 0.703125 24.4258 0.925781 25.3789 1.37109C26.332 1.80859 27.0703 2.42969 27.5938 3.23438C28.125 4.03906 28.3906 4.95312 28.3906 5.97656H24.875C24.875 5.19531 24.6289 4.58984 24.1367 4.16016C23.6445 3.72266 22.9531 3.50391 22.0625 3.50391C21.2031 3.50391 20.5352 3.6875 20.0586 4.05469C19.582 4.41406 19.3438 4.89062 19.3438 5.48438C19.3438 6.03906 19.6211 6.50391 20.1758 6.87891C20.7383 7.25391 21.5625 7.60547 22.6484 7.93359C24.6484 8.53516 26.1055 9.28125 27.0195 10.1719C27.9336 11.0625 28.3906 12.1719 28.3906 13.5C28.3906 14.9766 27.832 16.1367 26.7148 16.9805C25.5977 17.8164 24.0938 18.2344 22.2031 18.2344C20.8906 18.2344 19.6953 17.9961 18.6172 17.5195C17.5391 17.0352 16.7148 16.375 16.1445 15.5391C15.582 14.7031 15.3008 13.7344 15.3008 12.6328H18.8281C18.8281 14.5156 19.9531 15.457 22.2031 15.457C23.0391 15.457 23.6914 15.2891 24.1602 14.9531C24.6289 14.6094 24.8633 14.1328 24.8633 13.5234Z" fill="#7118E3"/>
<path d="M36.2656 10.3945C34.3359 9.83984 32.9297 9.16016 32.0469 8.35547C31.1719 7.54297 30.7344 6.54297 30.7344 5.35547C30.7344 4.01172 31.2695 2.90234 32.3398 2.02734C33.418 1.14453 34.8164 0.703125 36.5352 0.703125C37.707 0.703125 38.75 0.929687 39.6641 1.38281C40.5859 1.83594 41.2969 2.46094 41.7969 3.25781C42.3047 4.05469 42.5586 4.92578 42.5586 5.87109H40.2969C40.2969 4.83984 39.9688 4.03125 39.3125 3.44531C38.6562 2.85156 37.7305 2.55469 36.5352 2.55469C35.4258 2.55469 34.5586 2.80078 33.9336 3.29297C33.3164 3.77734 33.0078 4.45312 33.0078 5.32031C33.0078 6.01562 33.3008 6.60547 33.8867 7.08984C34.4805 7.56641 35.4844 8.00391 36.8984 8.40234C38.3203 8.80078 39.4297 9.24219 40.2266 9.72656C41.0312 10.2031 41.625 10.7617 42.0078 11.4023C42.3984 12.043 42.5938 12.7969 42.5938 13.6641C42.5938 15.0469 42.0547 16.1562 40.9766 16.9922C39.8984 17.8203 38.457 18.2344 36.6523 18.2344C35.4805 18.2344 34.3867 18.0117 33.3711 17.5664C32.3555 17.1133 31.5703 16.4961 31.0156 15.7148C30.4688 14.9336 30.1953 14.0469 30.1953 13.0547H32.457C32.457 14.0859 32.8359 14.9023 33.5938 15.5039C34.3594 16.0977 35.3789 16.3945 36.6523 16.3945C37.8398 16.3945 38.75 16.1523 39.3828 15.668C40.0156 15.1836 40.332 14.5234 40.332 13.6875C40.332 12.8516 40.0391 12.207 39.4531 11.7539C38.8672 11.293 37.8047 10.8398 36.2656 10.3945ZM57.2773 2.78906H51.793V18H49.5547V2.78906H44.082V0.9375H57.2773V2.78906ZM72.6055 10.0195C72.6055 11.6914 72.3242 13.1523 71.7617 14.4023C71.1992 15.6445 70.4023 16.5938 69.3711 17.25C68.3398 17.9062 67.1367 18.2344 65.7617 18.2344C64.418 18.2344 63.2266 17.9062 62.1875 17.25C61.1484 16.5859 60.3398 15.6445 59.7617 14.4258C59.1914 13.1992 58.8984 11.7812 58.8828 10.1719V8.94141C58.8828 7.30078 59.168 5.85156 59.7383 4.59375C60.3086 3.33594 61.1133 2.375 62.1523 1.71094C63.1992 1.03906 64.3945 0.703125 65.7383 0.703125C67.1055 0.703125 68.3086 1.03516 69.3477 1.69922C70.3945 2.35547 71.1992 3.3125 71.7617 4.57031C72.3242 5.82031 72.6055 7.27734 72.6055 8.94141V10.0195ZM70.3672 8.91797C70.3672 6.89453 69.9609 5.34375 69.1484 4.26562C68.3359 3.17969 67.1992 2.63672 65.7383 2.63672C64.3164 2.63672 63.1953 3.17969 62.375 4.26562C61.5625 5.34375 61.1445 6.84375 61.1211 8.76562V10.0195C61.1211 11.9805 61.5312 13.5234 62.3516 14.6484C63.1797 15.7656 64.3164 16.3242 65.7617 16.3242C67.2148 16.3242 68.3398 15.7969 69.1367 14.7422C69.9336 13.6797 70.3438 12.1602 70.3672 10.1836V8.91797ZM82.2383 11.0977H78.2305V18H75.9688V0.9375H81.6172C83.5391 0.9375 85.0156 1.375 86.0469 2.25C87.0859 3.125 87.6055 4.39844 87.6055 6.07031C87.6055 7.13281 87.3164 8.05859 86.7383 8.84766C86.168 9.63672 85.3711 10.2266 84.3477 10.6172L88.3555 17.8594V18H85.9414L82.2383 11.0977ZM78.2305 9.25781H81.6875C82.8047 9.25781 83.6914 8.96875 84.3477 8.39062C85.0117 7.8125 85.3438 7.03906 85.3438 6.07031C85.3438 5.01562 85.0273 4.20703 84.3945 3.64453C83.7695 3.08203 82.8633 2.79688 81.6758 2.78906H78.2305V9.25781ZM99.3594 12.2695H101.727V14.0391H99.3594V18H97.1797V14.0391H89.4102V12.7617L97.0508 0.9375H99.3594V12.2695ZM91.8711 12.2695H97.1797V3.90234L96.9219 4.37109L91.8711 12.2695Z" fill="#333333"/>
</svg>
